<?xml version="1.0" encoding="utf-8"?><svg viewBox="0 0 502.66 502.66" xmlns="http://www.w3.org/2000/svg" xmlns:xlink="http://www.w3.org/1999/xlink"><style>:root>svg{display:none}:root>svg:target{display:block}</style><svg viewBox="0 0 502.664 502.664" id="icon" xmlns="http://www.w3.org/2000/svg"><path d="M153.821 358.226L0 274.337v-46.463l153.821-83.414v54.574L46.636 250.523l107.185 53.431v54.272zm26.273 29.358L282.103 115.08h32.227L212.084 387.584h-31.99zm168.749-29.358v-54.272l107.164-52.999-107.164-52.59v-53.927l153.821 83.522v46.183l-153.821 84.083z"/></svg><svg viewBox="0 0 21 20" id="icon-right" xmlns="http://www.w3.org/2000/svg"><path fill-rule="evenodd" clip-rule="evenodd" d="M11.088 3.921a.831.831 0 00-1.176 1.175l4.063 4.07H4.667a.833.833 0 000 1.667h9.308l-4.063 4.07a.831.831 0 001.176 1.175L17.167 10l-6.08-6.079z" fill-opacity=".7"/><mask id="ba" maskUnits="userSpaceOnUse" x="3" y="3" width="15" height="14"><path fill-rule="evenodd" clip-rule="evenodd" d="M11.088 3.921a.831.831 0 00-1.176 1.175l4.063 4.07H4.667a.833.833 0 000 1.667h9.308l-4.063 4.07a.831.831 0 001.176 1.175L17.167 10l-6.08-6.079z"/></mask><g mask="url(#ba)"><path d="M.5 0h20v20H.5z"/></g></svg></svg>